<?xml version="1.0" standalone="no"?>
<!DOCTYPE svg PUBLIC "-//W3C//DTD SVG 20010904//EN"
 "http://www.w3.org/TR/2001/REC-SVG-20010904/DTD/svg10.dtd">
<svg version="1.0" xmlns="http://www.w3.org/2000/svg"
 width="512.000000pt" height="512.000000pt" viewBox="0 0 512.000000 512.000000"
 preserveAspectRatio="xMidYMid meet">
<metadata>
Created by potrace 1.14, written by Peter Selinger 2001-2017
</metadata>
<g transform="translate(0.000000,512.000000) scale(0.100000,-0.100000)"
fill="#000000" stroke="none">
<path d="M2398 5110 c-596 -37 -1159 -284 -1607 -706 -159 -150 -356 -406
-468 -609 -311 -564 -397 -1222 -242 -1854 177 -722 678 -1341 1353 -1671 343
-168 617 -239 1007 -261 900 -50 1748 382 2261 1153 80 120 212 381 263 522
117 319 171 703 147 1038 -18 256 -69 501 -147 714 -55 150 -185 405 -271 534
-200 300 -474 568 -770 755 -113 72 -360 193 -488 240 -318 117 -679 167
-1038 145z m342 -700 c733 -76 1349 -566 1580 -1258 229 -686 48 -1425 -472
-1928 -494 -478 -1223 -647 -1869 -433 -300 99 -613 305 -814 537 -232 266
-384 587 -447 942 -18 101 -18 479 0 580 63 355 215 676 447 942 272 314 703
550 1105 607 41 6 86 13 100 15 54 7 280 5 370 -4z"/>
<path d="M2455 3960 c-182 -14 -362 -63 -516 -141 -409 -205 -685 -577 -765
-1029 -19 -111 -19 -349 0 -460 91 -514 446 -934 931 -1098 526 -179 1085 -42
1470 359 256 266 389 597 389 969 0 374 -135 707 -392 972 -197 203 -410 327
-673 392 -98 24 -270 48 -321 45 -13 -1 -68 -5 -123 -9z m262 -657 c86 -175
157 -319 158 -321 3 -4 672 -102 693 -102 7 0 12 -4 10 -8 -1 -5 -113 -116
-248 -248 -139 -135 -246 -248 -248 -260 -2 -12 22 -168 53 -348 31 -180 55
-330 53 -335 -2 -5 -143 65 -314 155 l-311 164 -317 -166 c-174 -92 -318 -165
-320 -163 -1 2 25 161 58 353 l60 350 -254 248 c-140 136 -252 249 -250 252 3
2 160 27 350 55 238 35 348 55 355 64 5 8 78 152 160 320 83 168 151 306 153
306 2 1 74 -142 159 -316z"/>
</g>
</svg>
